<svg xmlns="http://www.w3.org/2000/svg" width="877.857" height="618.002" viewBox="0 0 877.857 618.002"><defs><style>.a{opacity:0.1;}.b,.c,.f,.i,.s,.t{fill:#00b7ed;}.b{opacity:0.838;}.c{opacity:0.986;}.d,.e,.g,.k,.l,.m,.r{fill:#ff39ab;}.d{opacity:0.966;}.e{opacity:0.9;}.f{opacity:0.876;}.g{opacity:0.985;}.h,.n,.u{fill:#a2eaff;}.h{opacity:0.832;}.i{opacity:0.935;}.j,.o,.p,.q{fill:#ff6dc1;}.j{opacity:0.947;}.k{opacity:0.963;}.l{opacity:0.892;}.m{opacity:0.962;}.n{opacity:0.929;}.o{opacity:0.821;}.p{opacity:0.801;}.q{opacity:0.948;}.r{opacity:0.82;}.s{opacity:0.869;}.t{opacity:0.819;}.u{opacity:0.982;}</style></defs><g class="a" transform="translate(-81.175 -10.385)"><circle class="b" cx="17.588" cy="17.588" r="17.588" transform="translate(650.216 443.98)"/><circle class="c" cx="19.382" cy="19.382" r="19.382" transform="translate(920.266 306.413)"/><circle class="d" cx="17.903" cy="17.903" r="17.903" transform="translate(913.55 115.079)"/><circle class="e" cx="23.334" cy="23.334" r="23.334" transform="translate(789.505 542.024)"/><circle class="f" cx="23.504" cy="23.504" r="23.504" transform="translate(858.02 385.722)"/><circle class="g" cx="20.119" cy="20.119" r="20.119" transform="translate(720.695 318.823)"/><circle class="h" cx="29.103" cy="29.103" r="29.103" transform="translate(787.422 217.312)"/><circle class="i" cx="28.571" cy="28.571" r="28.571" transform="translate(730.332 90.902)"/><circle class="j" cx="29.113" cy="29.113" r="29.113" transform="translate(497.089 570.161)"/><circle class="k" cx="16.76" cy="16.76" r="16.76" transform="translate(496.948 505.025)"/><circle class="l" cx="16.576" cy="16.576" r="16.576" transform="translate(498.053 281.194)"/><circle class="m" cx="22.001" cy="22.001" r="22.001" transform="translate(624.097 150.303)"/><circle class="n" cx="24.168" cy="24.168" r="24.168" transform="translate(531.45 53.613)"/><circle class="o" cx="30.938" cy="30.938" r="30.938" transform="translate(368.372 382.353)"/><circle class="p" cx="24.194" cy="24.194" r="24.194" transform="translate(288.205 324.567)"/><circle class="q" cx="27.068" cy="27.068" r="27.068" transform="translate(249.426 185.34)"/><circle class="r" cx="31.211" cy="31.211" r="31.211" transform="translate(399.221 10.385)"/><circle class="s" cx="24.557" cy="24.557" r="24.557" transform="translate(81.175 266.535)"/><circle class="t" cx="22.105" cy="22.105" r="22.105" transform="translate(130.966 199.419)"/><circle class="u" cx="21.066" cy="21.066" r="21.066" transform="translate(192.672 45.789)"/></g></svg>